<svg width="1247" height="258" viewBox="0 0 1247 258" fill="none" xmlns="http://www.w3.org/2000/svg">
    <rect width="1247" height="258" rx="129" fill="#3F7D58" />
    <path
        d="M513.237 155.5L527.421 102.292H539.697L553.737 155.5H545.709L533.505 107.224H533.577L521.301 155.5H513.237ZM521.445 142V135.52H545.637V142H521.445ZM578.754 102.4C582.186 102.4 585.054 102.88 587.358 103.84C589.686 104.776 591.45 106.192 592.65 108.088C593.85 109.96 594.45 112.3 594.45 115.108C594.45 117.796 593.898 120.064 592.794 121.912C591.714 123.736 590.322 125.128 588.618 126.088C586.938 127.048 585.21 127.588 583.434 127.708C585.354 127.756 587.25 128.212 589.122 129.076C591.018 129.916 592.578 131.284 593.802 133.18C595.026 135.052 595.638 137.56 595.638 140.704C595.638 143.728 595.026 146.356 593.802 148.588C592.602 150.796 590.742 152.5 588.222 153.7C585.702 154.9 582.462 155.5 578.502 155.5H559.998V102.4H578.754ZM567.522 127.168L564.894 124.72H575.694C579.198 124.72 581.898 124 583.794 122.56C585.69 121.12 586.638 119.056 586.638 116.368C586.638 114.544 586.242 113.092 585.45 112.012C584.658 110.908 583.518 110.116 582.03 109.636C580.566 109.132 578.826 108.88 576.81 108.88H563.994L567.522 104.776V127.168ZM576.99 149.02C580.35 149.02 582.966 148.276 584.838 146.788C586.734 145.276 587.682 143.104 587.682 140.272C587.682 138.568 587.37 137.14 586.746 135.988C586.146 134.812 585.318 133.876 584.262 133.18C583.206 132.484 581.982 131.98 580.59 131.668C579.198 131.332 577.71 131.164 576.126 131.164H564.894L567.522 128.716V153.124L563.994 149.02H576.99ZM624.45 156.256C621.282 156.256 618.354 155.656 615.666 154.456C613.002 153.232 610.662 151.456 608.646 149.128C606.654 146.776 605.106 143.908 604.002 140.524C602.898 137.116 602.346 133.24 602.346 128.896C602.346 124.528 602.898 120.664 604.002 117.304C605.106 113.92 606.654 111.076 608.646 108.772C610.662 106.444 613.014 104.692 615.702 103.516C618.39 102.316 621.306 101.716 624.45 101.716C627.618 101.716 630.546 102.316 633.234 103.516C635.946 104.692 638.298 106.444 640.29 108.772C642.282 111.076 643.83 113.92 644.934 117.304C646.038 120.664 646.59 124.528 646.59 128.896C646.59 133.24 646.038 137.116 644.934 140.524C643.83 143.908 642.27 146.776 640.254 149.128C638.262 151.456 635.922 153.232 633.234 154.456C630.546 155.656 627.618 156.256 624.45 156.256ZM624.45 149.596C627.162 149.596 629.586 148.852 631.722 147.364C633.882 145.876 635.574 143.608 636.798 140.56C638.022 137.488 638.634 133.6 638.634 128.896C638.634 124.168 638.01 120.292 636.762 117.268C635.538 114.244 633.858 112.012 631.722 110.572C629.586 109.132 627.162 108.412 624.45 108.412C621.786 108.412 619.374 109.132 617.214 110.572C615.078 112.012 613.386 114.244 612.138 117.268C610.89 120.292 610.266 124.168 610.266 128.896C610.266 133.624 610.89 137.524 612.138 140.596C613.386 143.644 615.078 145.912 617.214 147.4C619.374 148.864 621.786 149.596 624.45 149.596ZM691.767 136.06C691.767 142.876 690.099 147.952 686.763 151.288C683.427 154.6 678.819 156.256 672.939 156.256C667.083 156.256 662.487 154.6 659.151 151.288C655.839 147.952 654.183 142.876 654.183 136.06C654.183 135.052 654.183 133.984 654.183 132.856C654.183 131.704 654.183 130.504 654.183 129.256V102.4H661.995V130.12C661.995 131.272 661.995 132.34 661.995 133.324C661.995 134.308 661.995 135.208 661.995 136.024C661.995 140.824 662.907 144.292 664.731 146.428C666.555 148.54 669.291 149.596 672.939 149.596C676.611 149.596 679.359 148.54 681.183 146.428C683.031 144.292 683.955 140.824 683.955 136.024V102.4H691.767V136.06ZM733.651 108.88H717.559L720.007 104.776V155.5H712.195V104.776L714.895 108.88H698.587V102.4H733.651V108.88Z"
        fill="white" />
</svg>